<svg width="35" height="40" viewBox="0 0 35 40" fill="none" xmlns="http://www.w3.org/2000/svg">
<path d="M17.499 40C18.8251 40 20.0968 39.4732 21.0344 38.5356C21.972 37.598 22.4988 36.3263 22.4988 35.0003H12.4993C12.4993 36.3263 13.0261 37.598 13.9637 38.5356C14.9013 39.4732 16.173 40 17.499 40ZM19.9864 2.74954C20.0213 2.40194 19.9829 2.05089 19.8738 1.71903C19.7647 1.38716 19.5872 1.08185 19.3529 0.822787C19.1185 0.563722 18.8325 0.356654 18.5132 0.214937C18.1938 0.0732197 17.8484 0 17.499 0C17.1497 0 16.8042 0.0732197 16.4849 0.214937C16.1656 0.356654 15.8796 0.563722 15.6452 0.822787C15.4108 1.08185 15.2334 1.38716 15.1243 1.71903C15.0151 2.05089 14.9768 2.40194 15.0117 2.74954C12.1861 3.32426 9.64603 4.85782 7.82148 7.09055C5.99694 9.32328 5.00009 12.118 4.99973 15.0014C4.99973 17.7462 3.74979 30.0005 0 32.5004H34.9981C31.2483 30.0005 29.9984 17.7462 29.9984 15.0014C29.9984 8.9517 25.6986 3.90197 19.9864 2.74954Z" fill="#646464"/>
</svg>
